# File created by Blade
# Date/Time:  Tue Jan 27 17:09:01 2015
#---------------------------------------------------------
:version 1.10
:name HOM
:units
  mass 1.0
  length 1.000000
  angle deg
:documentation
     Acclaim Skeleton File
:root
   axis xyz
   order TX TY TZ RX RY RZ
   position 0.000000 0.000000 0.000000
   orientation 0 0 0
:bonedata
   begin
      id 1
      name Spine_dum
      direction 0.000000 1.000000 0.000000
      length 7.539951
      axis 0.0 0.0 0.0 xyz
   end
   begin
      id 2
      name LeftUpLeg_dum
      direction 1.000000 0.000000 0.000000
      length 3.345476
      axis 0.0 0.0 0.0 xyz
   end
   begin
      id 3
      name RightUpLeg_dum
      direction -1.000000 0.000000 0.000000
      length 3.345476
      axis 0.0 0.0 0.0 xyz
   end
   begin
      id 4
      name Spine
      direction 0.000000 1.000000 0.000000
      length 0.000000
      axis 0.0 0.0 0.0 xyz
      dof rx ry rz
   end
   begin
      id 5
      name Spine_dum1
      direction 0.000000 1.000000 0.000000
      length 15.093809
      axis 0.0 0.0 0.0 xyz
   end
   begin
      id 6
      name Spine_dum2
      direction 0.000000 1.000000 0.000000
      length 9.738928
      axis 0.0 0.0 0.0 xyz
   end
   begin
      id 7
      name Spine_dum3
      direction 0.000000 1.000000 0.000000
      length 9.738928
      axis 0.0 0.0 0.0 xyz
   end
   begin
      id 8
      name Head
      direction 0.000000 1.000000 0.000000
      length 4.527550
      axis 0.0 0.0 0.0 xyz
      dof rx ry rz
   end
   begin
      id 9
      name LeftShoulder
      direction 1.000000 0.000000 0.000000
      length 7.084015
      axis 0.0 0.0 -90.0 xyz
      dof rx ry rz
   end
   begin
      id 10
      name LeftArm
      direction 1.000000 0.000000 0.000000
      length 10.259319
      axis 0.0 0.0 -90.0 xyz
      dof rx ry rz
   end
   begin
      id 11
      name LeftForeArm
      direction 1.000000 0.000000 0.000000
      length 9.896984
      axis 0.0 0.0 -90.0 xyz
      dof ry rz rx
   end
   begin
      id 12
      name LeftHand
      direction 0.000000 0.000000 0.000000
      length 0.000000
      axis 0.0 0.0 -90.0 xyz
      dof rx ry rz
   end
   begin
      id 13
      name LeftHand_dum1
      direction 0.000000 0.000000 0.000000
      length 0.000000
      axis 0.0 0.0 -90.0 xyz
   end
   begin
      id 14
      name LeftHand_dum2
      direction 1.000000 0.000000 0.000000
      length 3.937000
      axis 0.0 0.0 -90.0 xyz
   end
   begin
      id 15
      name LeftHandThumb1
      direction 0.000000 0.000000 1.000000
      length 3.937000
      axis 0.0 0.0 -90.0 xyz
      dof rx rz ry
   end
   begin
      id 16
      name RightShoulder
      direction -1.000000 0.000000 0.000000
      length 7.084015
      axis 0.0 0.0 90.0 xyz
      dof rx ry rz
   end
   begin
      id 17
      name RightArm
      direction -1.000000 0.000000 0.000000
      length 10.259319
      axis 0.0 0.0 90.0 xyz
      dof rx ry rz
   end
   begin
      id 18
      name RightForeArm
      direction -1.000000 0.000000 0.000000
      length 9.896984
      axis 0.0 0.0 90.0 xyz
      dof ry rz rx
   end
   begin
      id 19
      name RightHand
      direction 0.000000 0.000000 0.000000
      length 0.000000
      axis 0.0 0.0 90.0 xyz
      dof rx ry rz
   end
   begin
      id 20
      name RightHand_dum1
      direction 0.000000 0.000000 0.000000
      length 0.000000
      axis 0.0 0.0 90.0 xyz
   end
   begin
      id 21
      name RightHand_dum2
      direction -1.000000 0.000000 0.000000
      length 3.937000
      axis 0.0 0.0 90.0 xyz
   end
   begin
      id 22
      name RightHandThumb1
      direction 0.000000 0.000000 1.000000
      length 3.937000
      axis 0.0 0.0 90.0 xyz
      dof rx rz ry
   end
   begin
      id 23
      name LeftUpLeg
      direction 0.000000 -1.000000 0.000000
      length 19.114733
      axis 0.0 0.0 0.0 xyz
      dof rx ry rz
   end
   begin
      id 24
      name LeftLeg
      direction 0.000000 -1.000000 0.000000
      length 16.045604
      axis 0.0 0.0 0.0 xyz
      dof rx ry rz
   end
   begin
      id 25
      name LeftFoot
      direction 0.000000 -0.258819 0.965926
      length 5.543155
      axis 15.0 0.0 0.0 xyz
      dof rx ry rz
   end
   begin
      id 26
      name LeftToeBase
      direction 0.000000 0.000000 1.000000
      length 2.952750
      axis 0.0 0.0 0.0 xyz
      dof rx ry rz
   end
   begin
      id 27
      name RightUpLeg
      direction 0.000000 -1.000000 0.000000
      length 19.114733
      axis 0.0 0.0 0.0 xyz
      dof rx ry rz
   end
   begin
      id 28
      name RightLeg
      direction 0.000000 -1.000000 0.000000
      length 16.045604
      axis 0.0 0.0 0.0 xyz
      dof rx ry rz
   end
   begin
      id 29
      name RightFoot
      direction 0.000000 -0.258819 0.965926
      length 5.543155
      axis 15.0 0.0 0.0 xyz
      dof rx ry rz
   end
   begin
      id 30
      name RightToeBase
      direction 0.000000 0.000000 1.000000
      length 2.952750
      axis 0.0 0.0 0.0 xyz
      dof rx ry rz
   end
:hierarchy
   begin
      root Spine_dum LeftUpLeg_dum RightUpLeg_dum
      Spine_dum Spine
      LeftUpLeg_dum LeftUpLeg
      RightUpLeg_dum RightUpLeg
      Spine Spine_dum1 Spine_dum2 Spine_dum3
      Spine_dum1 Head
      Spine_dum2 LeftShoulder
      Spine_dum3 RightShoulder
      LeftShoulder LeftArm
      LeftArm LeftForeArm
      LeftForeArm LeftHand
      LeftHand LeftHand_dum1 LeftHand_dum2
      LeftHand_dum1 LeftHandThumb1
      RightShoulder RightArm
      RightArm RightForeArm
      RightForeArm RightHand
      RightHand RightHand_dum1 RightHand_dum2
      RightHand_dum1 RightHandThumb1
      LeftUpLeg LeftLeg
      LeftLeg LeftFoot
      LeftFoot LeftToeBase
      RightUpLeg RightLeg
      RightLeg RightFoot
      RightFoot RightToeBase
   end

# File created by Blade
# Date/Time:  Tue Jan 27 17:08:52 2015
# Frame Rate: 120.000 fps
#------------------------------------------------------
:FULLY-SPECIFIED
:DEGREES
2429
root 0.613954 36.642908 0.980749 8.676581 -43.038655 -18.722872
Spine 14.136603 19.558508 19.254623
Head -1.052227 -10.944157 -5.417153
LeftShoulder -9.944548 -4.127392 1.495601
LeftArm -23.426198 -33.154053 -42.029951
LeftForeArm 8.878018 -0.000000 119.625376
LeftHand -20.858229 -0.000000 27.783042
LeftHandThumb1 -26.253704 0.000000 33.147579
RightShoulder 1.167401 -20.474708 -6.840574
RightArm 24.840392 -18.153875 59.092383
RightForeArm 170.038197 -0.000000 71.798557
RightHand -3.732325 -0.000000 21.274762
RightHandThumb1 -24.326973 -0.000000 -32.862282
LeftUpLeg -8.408493 16.839187 6.134096
LeftLeg 29.285609 -0.000000 -0.000000
LeftFoot -27.931566 15.551704 -10.950873
LeftToeBase 13.400961 -0.000000 -0.000000
RightUpLeg -82.911009 -40.249827 14.489709
RightLeg 119.965693 -0.000000 -0.000000
RightFoot -5.482467 -11.102838 10.913381
RightToeBase 7.418043 -0.000000 -0.000000
2430
root 0.615094 36.647396 0.984929 8.745672 -43.099000 -18.820318
Spine 14.271364 19.533817 19.348158
Head -1.117014 -10.794347 -5.435152
LeftShoulder -9.935673 -4.128526 1.494900
LeftArm -23.468829 -33.181684 -42.110145
LeftForeArm 9.033888 -0.000000 119.694917
LeftHand -20.849497 -0.000000 27.775282
LeftHandThumb1 -26.253704 0.000000 33.147579
RightShoulder 1.160466 -20.487098 -6.846923
RightArm 25.164929 -18.645515 58.763676
RightForeArm 170.227064 -0.000000 71.634901
RightHand -3.514258 0.000000 20.481282
RightHandThumb1 -24.326973 -0.000000 -32.862282
LeftUpLeg -8.391072 16.875390 6.177922
LeftLeg 29.264616 -0.000000 -0.000000
LeftFoot -27.892988 15.619822 -10.849201
LeftToeBase 13.343286 -0.000000 -0.000000
RightUpLeg -82.949183 -40.198934 14.524562
RightLeg 120.280727 -0.000000 -0.000000
RightFoot -5.680534 -10.966103 10.982983
RightToeBase 7.464291 -0.000000 -0.000000
2431
root 0.617449 36.651002 0.987505 8.824938 -43.143857 -18.900555
Spine 14.360478 19.513571 19.417127
Head -1.141225 -10.660336 -5.483571
LeftShoulder -9.929956 -4.076517 1.479497
LeftArm -23.446205 -33.235868 -42.193334
LeftForeArm 9.200819 -0.000000 119.752589
LeftHand -20.954235 -0.000000 27.831978
LeftHandThumb1 -26.253704 0.000000 33.147579
RightShoulder 1.156761 -20.538334 -6.855102
RightArm 25.510045 -19.117004 58.409085
RightForeArm 170.527786 -0.000000 71.439643
RightHand -3.455454 -0.000000 19.936230
RightHandThumb1 -24.326973 -0.000000 -32.862282
LeftUpLeg -8.407598 16.884042 6.207186
LeftLeg 29.253874 -0.000000 -0.000000
LeftFoot -27.872876 15.738214 -10.778588
LeftToeBase 13.305484 -0.000000 -0.000000
RightUpLeg -83.015174 -40.147942 14.571967
RightLeg 120.573799 -0.000000 -0.000000
RightFoot -5.766989 -10.821147 10.947795
RightToeBase 7.322883 -0.000000 -0.000000
2432
root 0.619638 36.655085 0.988330 8.911658 -43.168166 -18.994595
Spine 14.452294 19.479346 19.489123
Head -1.184137 -10.541348 -5.454192
LeftShoulder -9.939619 -4.097394 1.478057
LeftArm -23.442144 -33.222276 -42.254505
LeftForeArm 9.356134 0.000000 119.805462
LeftHand -20.945569 0.000000 27.816116
LeftHandThumb1 -26.253704 0.000000 33.147579
RightShoulder 1.162086 -20.560238 -6.851182
RightArm 25.813458 -19.556206 58.049156
RightForeArm 170.957538 0.000000 71.259963
RightHand -3.301885 -0.000000 19.357971
RightHandThumb1 -24.326973 -0.000000 -32.862282
LeftUpLeg -8.430672 16.894631 6.252315
LeftLeg 29.250626 -0.000000 -0.000000
LeftFoot -27.853977 15.814082 -10.760422
LeftToeBase 13.239066 -0.000000 -0.000000
RightUpLeg -83.072138 -40.107453 14.653518
RightLeg 120.817372 -0.000000 -0.000000
RightFoot -5.865715 -10.733311 10.935298
RightToeBase 7.337908 -0.000000 -0.000000
2433
root 0.621236 36.658480 0.989697 9.001927 -43.166938 -19.094394
Spine 14.521860 19.423988 19.564800
Head -1.185461 -10.469162 -5.419817
LeftShoulder -9.910927 -4.088649 1.471402
LeftArm -23.476813 -33.230062 -42.288339
LeftForeArm 9.484464 -0.000000 119.885633
LeftHand -21.034937 -0.000000 27.965670
LeftHandThumb1 -26.253704 0.000000 33.147579
RightShoulder 1.160698 -20.601901 -6.838513
RightArm 26.127821 -19.998107 57.645845
RightForeArm 171.416068 -0.000000 71.053544
RightHand -3.314226 -0.000000 19.006744
RightHandThumb1 -24.326973 -0.000000 -32.862282
LeftUpLeg -8.453660 16.860416 6.309803
LeftLeg 29.239729 -0.000000 -0.000000
LeftFoot -27.845414 15.977958 -10.655503
LeftToeBase 13.278676 -0.000000 -0.000000
RightUpLeg -83.115053 -40.091742 14.738970
RightLeg 121.032386 -0.000000 -0.000000
RightFoot -5.874784 -10.623932 10.839612
RightToeBase 7.299343 -0.000000 -0.000000
2434
root 0.622977 36.660805 0.987091 9.106053 -43.179062 -19.179930
Spine 14.575192 19.392652 19.588652
Head -1.248674 -10.368903 -5.316549
LeftShoulder -9.899469 -4.135024 1.496276
LeftArm -23.536759 -33.221259 -42.289526
LeftForeArm 9.652150 0.000000 119.953008
LeftHand -21.117105 -0.000000 28.009746
LeftHandThumb1 -26.253704 0.000000 33.147579
RightShoulder 1.150209 -20.602732 -6.785320
RightArm 26.423554 -20.442534 57.217660
RightForeArm 172.247775 -0.000000 70.820959
RightHand -3.523626 -0.000000 18.681372
RightHandThumb1 -24.326973 -0.000000 -32.862282
LeftUpLeg -8.503225 16.885283 6.348057
LeftLeg 29.226737 -0.000000 -0.000000
LeftFoot -27.830426 16.039238 -10.624744
LeftToeBase 13.239533 -0.000000 -0.000000
RightUpLeg -83.173228 -40.032837 14.830946
RightLeg 121.208286 -0.000000 -0.000000
RightFoot -5.880793 -10.518768 10.876312
RightToeBase 7.433563 -0.000000 -0.000000
2435
root 0.625464 36.662666 0.985798 9.195390 -43.170528 -19.243012
Spine 14.615286 19.352450 19.586156
Head -1.265320 -10.316014 -5.178479
LeftShoulder -9.903211 -4.167984 1.522327
LeftArm -23.527223 -33.198856 -42.316197
LeftForeArm 9.817863 -0.000000 120.000817
LeftHand -21.183875 -0.000000 28.117430
LeftHandThumb1 -26.253704 0.000000 33.147579
RightShoulder 1.130675 -20.613838 -6.734483
RightArm 26.699142 -20.833006 56.822584
RightForeArm 172.693669 -0.000000 70.629160
RightHand -3.569310 -0.000000 18.537215
RightHandThumb1 -24.326973 -0.000000 -32.862282
LeftUpLeg -8.560055 16.873434 6.369796
LeftLeg 29.224983 -0.000000 -0.000000
LeftFoot -27.813133 16.113927 -10.587879
LeftToeBase 13.161548 -0.000000 -0.000000
RightUpLeg -83.231121 -39.998441 14.924259
RightLeg 121.332825 -0.000000 -0.000000
RightFoot -5.898799 -10.447071 10.952333
RightToeBase 7.385214 -0.000000 -0.000000
2436
root 0.629022 36.664452 0.982296 9.301019 -43.174664 -19.314617
Spine 14.647191 19.344234 19.602173
Head -1.272498 -10.318399 -5.094495
LeftShoulder -9.874089 -4.149771 1.513482
LeftArm -23.496465 -33.217027 -42.325286
LeftForeArm 9.939360 0.000000 120.034305
LeftHand -21.253894 -0.000000 28.221434
LeftHandThumb1 -26.253704 0.000000 33.147579
RightShoulder 1.132365 -20.631633 -6.701206
RightArm 26.946968 -21.163324 56.445098
RightForeArm 172.970514 -0.000000 70.475782
RightHand -3.458801 -0.000000 18.275517
RightHandThumb1 -24.326973 -0.000000 -32.862282
LeftUpLeg -8.627396 16.880790 6.395714
LeftLeg 29.220786 -0.000000 -0.000000
LeftFoot -27.807276 16.168560 -10.554592
LeftToeBase 13.132697 -0.000000 -0.000000
RightUpLeg -83.289236 -39.930680 15.040934
RightLeg 121.398139 -0.000000 -0.000000
RightFoot -5.835716 -10.425064 10.832786
RightToeBase 7.327462 -0.000000 -0.000000
2437
root 0.633770 36.665016 0.977964 9.393535 -43.179503 -19.365227
Spine 14.676610 19.328533 19.579819
Head -1.303297 -10.271995 -4.965333
LeftShoulder -9.833215 -4.140178 1.521542
LeftArm -23.511932 -33.278575 -42.304403
LeftForeArm 10.034819 -0.000000 120.078368
LeftHand -21.308309 -0.000000 28.237383
LeftHandThumb1 -26.253704 0.000000 33.147579
RightShoulder 1.163950 -20.630488 -6.654960
RightArm 27.130747 -21.416887 56.120840
RightForeArm 173.385313 -0.000000 70.363443
RightHand -3.549736 -0.000000 17.937901
RightHandThumb1 -24.326973 -0.000000 -32.862282
LeftUpLeg -8.699075 16.876131 6.408858
LeftLeg 29.227359 -0.000000 -0.000000
LeftFoot -27.798004 16.220483 -10.517010
LeftToeBase 13.124838 -0.000000 -0.000000
RightUpLeg -83.334264 -39.858487 15.120827
RightLeg 121.428926 -0.000000 -0.000000
RightFoot -5.834040 -10.362932 10.850817
RightToeBase 7.513139 -0.000000 -0.000000
2438
root 0.638648 36.664998 0.971140 9.489049 -43.203457 -19.406710
Spine 14.711836 19.346521 19.538012
Head -1.332335 -10.311186 -4.790744
LeftShoulder -9.792849 -4.186819 1.549048
LeftArm -23.530763 -33.312154 -42.284717
LeftForeArm 10.116338 -0.000000 120.103544
LeftHand -21.361125 -0.000000 28.361273
LeftHandThumb1 -26.253704 0.000000 33.147579
RightShoulder 1.176948 -20.617364 -6.611470
RightArm 27.311201 -21.695475 55.814627
RightForeArm 173.619601 -0.000000 70.272237
RightHand -3.460156 -0.000000 17.949174
RightHandThumb1 -24.326973 -0.000000 -32.862282
LeftUpLeg -8.778785 16.892106 6.411031
LeftLeg 29.233985 -0.000000 -0.000000
LeftFoot -27.785840 16.302286 -10.521743
LeftToeBase 13.017128 -0.000000 -0.000000
RightUpLeg -83.375802 -39.755491 15.197416
RightLeg 121.404253 -0.000000 -0.000000
RightFoot -5.830533 -10.331781 10.852470
RightToeBase 7.582842 -0.000000 -0.000000
